<mxfile host="app.diagrams.net" agent="Mozilla/5.0 (Windows NT 10.0; Win64; x64) AppleWebKit/537.36 (KHTML, like Gecko) Chrome/130.0.0.0 Safari/537.36" version="24.8.3">
  <diagram id="C5RBs43oDa-KdzZeNtuy" name="Page-1">
    <mxGraphModel dx="1290" dy="557" grid="1" gridSize="10" guides="1" tooltips="1" connect="1" arrows="1" fold="1" page="1" pageScale="1" pageWidth="827" pageHeight="1169" math="0" shadow="0">
      <root>
        <mxCell id="WIyWlLk6GJQsqaUBKTNV-0" />
        <mxCell id="WIyWlLk6GJQsqaUBKTNV-1" parent="WIyWlLk6GJQsqaUBKTNV-0" />
        <mxCell id="OzYfU2kAkMacpWaQOSSd-1" value="" style="edgeStyle=orthogonalEdgeStyle;rounded=0;orthogonalLoop=1;jettySize=auto;html=1;" edge="1" parent="WIyWlLk6GJQsqaUBKTNV-1" source="AcnrYrXJp3ras1kbxZeb-0" target="OzYfU2kAkMacpWaQOSSd-0">
          <mxGeometry relative="1" as="geometry" />
        </mxCell>
        <mxCell id="AcnrYrXJp3ras1kbxZeb-0" value="Начало" style="ellipse;whiteSpace=wrap;html=1;" parent="WIyWlLk6GJQsqaUBKTNV-1" vertex="1">
          <mxGeometry x="220" y="100" width="120" height="40" as="geometry" />
        </mxCell>
        <mxCell id="OzYfU2kAkMacpWaQOSSd-4" value="" style="edgeStyle=orthogonalEdgeStyle;rounded=0;orthogonalLoop=1;jettySize=auto;html=1;" edge="1" parent="WIyWlLk6GJQsqaUBKTNV-1" source="OzYfU2kAkMacpWaQOSSd-0" target="OzYfU2kAkMacpWaQOSSd-3">
          <mxGeometry relative="1" as="geometry" />
        </mxCell>
        <mxCell id="OzYfU2kAkMacpWaQOSSd-0" value="Привести систему к виду x=phi(x), где x - вектор" style="rounded=1;whiteSpace=wrap;html=1;" vertex="1" parent="WIyWlLk6GJQsqaUBKTNV-1">
          <mxGeometry x="205" y="170" width="150" height="40" as="geometry" />
        </mxCell>
        <mxCell id="OzYfU2kAkMacpWaQOSSd-8" value="" style="edgeStyle=orthogonalEdgeStyle;rounded=0;orthogonalLoop=1;jettySize=auto;html=1;" edge="1" parent="WIyWlLk6GJQsqaUBKTNV-1" source="OzYfU2kAkMacpWaQOSSd-2" target="OzYfU2kAkMacpWaQOSSd-5">
          <mxGeometry relative="1" as="geometry" />
        </mxCell>
        <mxCell id="OzYfU2kAkMacpWaQOSSd-2" value="x^k=x^(k-1) - J^(-1)(x^(k-1))*f(x^(k-1))" style="shape=hexagon;perimeter=hexagonPerimeter2;whiteSpace=wrap;html=1;fixedSize=1;" vertex="1" parent="WIyWlLk6GJQsqaUBKTNV-1">
          <mxGeometry x="215" y="320" width="130" height="50" as="geometry" />
        </mxCell>
        <mxCell id="OzYfU2kAkMacpWaQOSSd-7" value="" style="edgeStyle=orthogonalEdgeStyle;rounded=0;orthogonalLoop=1;jettySize=auto;html=1;" edge="1" parent="WIyWlLk6GJQsqaUBKTNV-1" source="OzYfU2kAkMacpWaQOSSd-3" target="OzYfU2kAkMacpWaQOSSd-2">
          <mxGeometry relative="1" as="geometry" />
        </mxCell>
        <mxCell id="OzYfU2kAkMacpWaQOSSd-3" value="Задать начальное приближение x0 (вектор);&lt;div&gt;J=df/dx&lt;/div&gt;" style="rounded=1;whiteSpace=wrap;html=1;" vertex="1" parent="WIyWlLk6GJQsqaUBKTNV-1">
          <mxGeometry x="207.5" y="240" width="145" height="50" as="geometry" />
        </mxCell>
        <mxCell id="OzYfU2kAkMacpWaQOSSd-11" style="edgeStyle=orthogonalEdgeStyle;rounded=0;orthogonalLoop=1;jettySize=auto;html=1;entryX=1;entryY=0.5;entryDx=0;entryDy=0;" edge="1" parent="WIyWlLk6GJQsqaUBKTNV-1" source="OzYfU2kAkMacpWaQOSSd-5" target="OzYfU2kAkMacpWaQOSSd-10">
          <mxGeometry relative="1" as="geometry" />
        </mxCell>
        <mxCell id="OzYfU2kAkMacpWaQOSSd-15" style="edgeStyle=orthogonalEdgeStyle;rounded=0;orthogonalLoop=1;jettySize=auto;html=1;entryX=1;entryY=0.5;entryDx=0;entryDy=0;" edge="1" parent="WIyWlLk6GJQsqaUBKTNV-1" source="OzYfU2kAkMacpWaQOSSd-5" target="OzYfU2kAkMacpWaQOSSd-14">
          <mxGeometry relative="1" as="geometry">
            <Array as="points">
              <mxPoint x="385" y="430" />
              <mxPoint x="385" y="510" />
            </Array>
          </mxGeometry>
        </mxCell>
        <mxCell id="OzYfU2kAkMacpWaQOSSd-5" value="|x^(k+1)-x^k|&amp;lt;epsilon" style="rhombus;whiteSpace=wrap;html=1;" vertex="1" parent="WIyWlLk6GJQsqaUBKTNV-1">
          <mxGeometry x="195" y="400" width="170" height="60" as="geometry" />
        </mxCell>
        <mxCell id="OzYfU2kAkMacpWaQOSSd-12" style="edgeStyle=orthogonalEdgeStyle;rounded=0;orthogonalLoop=1;jettySize=auto;html=1;entryX=0;entryY=0.5;entryDx=0;entryDy=0;" edge="1" parent="WIyWlLk6GJQsqaUBKTNV-1" source="OzYfU2kAkMacpWaQOSSd-10" target="OzYfU2kAkMacpWaQOSSd-2">
          <mxGeometry relative="1" as="geometry">
            <Array as="points">
              <mxPoint x="135" y="345" />
            </Array>
          </mxGeometry>
        </mxCell>
        <mxCell id="OzYfU2kAkMacpWaQOSSd-10" value="k+=1" style="rounded=1;whiteSpace=wrap;html=1;" vertex="1" parent="WIyWlLk6GJQsqaUBKTNV-1">
          <mxGeometry x="110" y="415" width="50" height="30" as="geometry" />
        </mxCell>
        <mxCell id="OzYfU2kAkMacpWaQOSSd-13" value="Нет" style="text;html=1;align=center;verticalAlign=middle;resizable=0;points=[];autosize=1;strokeColor=none;fillColor=none;" vertex="1" parent="WIyWlLk6GJQsqaUBKTNV-1">
          <mxGeometry x="170" y="398" width="40" height="30" as="geometry" />
        </mxCell>
        <mxCell id="OzYfU2kAkMacpWaQOSSd-14" value="Конец" style="ellipse;whiteSpace=wrap;html=1;" vertex="1" parent="WIyWlLk6GJQsqaUBKTNV-1">
          <mxGeometry x="220" y="490" width="120" height="40" as="geometry" />
        </mxCell>
        <mxCell id="OzYfU2kAkMacpWaQOSSd-17" value="Да" style="text;html=1;align=center;verticalAlign=middle;resizable=0;points=[];autosize=1;strokeColor=none;fillColor=none;" vertex="1" parent="WIyWlLk6GJQsqaUBKTNV-1">
          <mxGeometry x="350" y="398" width="40" height="30" as="geometry" />
        </mxCell>
      </root>
    </mxGraphModel>
  </diagram>
</mxfile>
